<?xml version="1.0" encoding="UTF-8" standalone="no"?>
<!-- Created with Inkscape (http://www.inkscape.org/) -->

<svg
   width="1200"
   height="800"
   viewBox="0 0 317.5 211.66667"
   version="1.1"
   id="svg1"
   inkscape:version="1.4.3 (0d15f75, 2025-12-25)"
   sodipodi:docname="wITt_Final_white.svg"
   inkscape:export-filename="wITt_Final_white.png"
   inkscape:export-xdpi="35.200001"
   inkscape:export-ydpi="35.200001"
   xmlns:inkscape="http://www.inkscape.org/namespaces/inkscape"
   xmlns:sodipodi="http://sodipodi.sourceforge.net/DTD/sodipodi-0.dtd"
   xmlns="http://www.w3.org/2000/svg"
   xmlns:svg="http://www.w3.org/2000/svg">
  <sodipodi:namedview
     id="namedview1"
     pagecolor="#ffffff"
     bordercolor="#000000"
     borderopacity="0.25"
     inkscape:showpageshadow="2"
     inkscape:pageopacity="0.0"
     inkscape:pagecheckerboard="false"
     inkscape:deskcolor="#d1d1d1"
     inkscape:document-units="px"
     inkscape:zoom="0.70710678"
     inkscape:cx="236.88077"
     inkscape:cy="419.31432"
     inkscape:window-width="1920"
     inkscape:window-height="1009"
     inkscape:window-x="2552"
     inkscape:window-y="-8"
     inkscape:window-maximized="1"
     inkscape:current-layer="layer1"
     showguides="false">
    <sodipodi:guide
       position="155.83958,126.60313"
       orientation="0,-1"
       id="guide58"
       inkscape:locked="false" />
    <sodipodi:guide
       position="156.10416,126.60313"
       orientation="-1,0"
       id="guide59"
       inkscape:locked="false"
       inkscape:label=""
       inkscape:color="rgb(0,134,229)" />
    <sodipodi:guide
       position="155.83958,126.60313"
       orientation="-0.70710678,0.70710678"
       id="guide1"
       inkscape:locked="false" />
    <sodipodi:guide
       position="155.83958,126.60313"
       orientation="0.70710678,0.70710678"
       id="guide2"
       inkscape:locked="false" />
    <sodipodi:guide
       position="180.71042,126.60313"
       orientation="1,0"
       id="guide3"
       inkscape:locked="false" />
    <sodipodi:guide
       position="230.1875,21.383244"
       orientation="0,-1"
       id="guide8"
       inkscape:locked="false" />
  </sodipodi:namedview>
  <defs
     id="defs1">
    <marker
       style="overflow:visible"
       id="marker7"
       refX="0"
       refY="0"
       orient="auto"
       inkscape:stockid="Dot"
       markerWidth="1"
       markerHeight="1"
       viewBox="0 0 1 1"
       inkscape:isstock="true"
       inkscape:collect="always"
       preserveAspectRatio="xMidYMid">
      <path
         transform="scale(0.5)"
         style="fill:context-stroke;fill-rule:evenodd;stroke:none"
         d="M 5,0 C 5,2.76 2.76,5 0,5 -2.76,5 -5,2.76 -5,0 c 0,-2.76 2.3,-5 5,-5 2.76,0 5,2.24 5,5 z"
         sodipodi:nodetypes="sssss"
         id="path7" />
    </marker>
    <marker
       style="overflow:visible"
       id="marker5"
       refX="0"
       refY="0"
       orient="auto"
       inkscape:stockid="Dot"
       markerWidth="1"
       markerHeight="1"
       viewBox="0 0 1 1"
       inkscape:isstock="true"
       inkscape:collect="always"
       preserveAspectRatio="xMidYMid">
      <path
         transform="scale(0.5)"
         style="fill:context-stroke;fill-rule:evenodd;stroke:none"
         d="M 5,0 C 5,2.76 2.76,5 0,5 -2.76,5 -5,2.76 -5,0 c 0,-2.76 2.3,-5 5,-5 2.76,0 5,2.24 5,5 z"
         sodipodi:nodetypes="sssss"
         id="path5" />
    </marker>
    <marker
       style="overflow:visible"
       id="Dot"
       refX="0"
       refY="0"
       orient="auto"
       inkscape:stockid="Dot"
       markerWidth="1"
       markerHeight="1"
       viewBox="0 0 1 1"
       inkscape:isstock="true"
       inkscape:collect="always"
       preserveAspectRatio="xMidYMid">
      <path
         transform="scale(0.5)"
         style="fill:context-stroke;fill-rule:evenodd;stroke:none"
         d="M 5,0 C 5,2.76 2.76,5 0,5 -2.76,5 -5,2.76 -5,0 c 0,-2.76 2.3,-5 5,-5 2.76,0 5,2.24 5,5 z"
         sodipodi:nodetypes="sssss"
         id="path17" />
    </marker>
    <rect
       x="150.22568"
       y="175.2633"
       width="1584.3245"
       height="721.91786"
       id="rect4" />
    <rect
       x="150.22568"
       y="175.26331"
       width="1584.3245"
       height="721.91785"
       id="rect4-1" />
    <rect
       x="150.22568"
       y="175.26331"
       width="1584.3245"
       height="721.91785"
       id="rect4-7" />
    <rect
       x="150.22568"
       y="175.26331"
       width="1584.3245"
       height="721.91785"
       id="rect4-8" />
    <rect
       x="150.22568"
       y="175.26331"
       width="1584.3245"
       height="721.91785"
       id="rect4-4" />
  </defs>
  <g
     inkscape:label="Napis"
     inkscape:groupmode="layer"
     id="layer1"
     transform="matrix(1.2327387,0,0,1.2327387,-54.608455,-40.305579)">
    <g
       id="g12"
       transform="translate(-0.95690453,-0.07704567)">
      <text
         xml:space="preserve"
         transform="matrix(0.26458334,0,0,0.26458334,5.5079424,35.538933)"
         id="text4"
         style="font-style:normal;font-variant:normal;font-weight:bold;font-stretch:normal;font-size:96px;font-family:'Fira Sans';-inkscape-font-specification:'Fira Sans, Bold';font-variant-ligatures:normal;font-variant-caps:normal;font-variant-numeric:normal;font-variant-east-asian:normal;writing-mode:lr-tb;direction:ltr;white-space:pre;shape-inside:url(#rect4);display:inline;fill:#ffffff;fill-opacity:1"><tspan
           x="150.22656"
           y="585.15227"
           id="tspan6"><tspan
             style="font-size:453.333px"
             id="tspan5">w</tspan></tspan></text>
      <path
         id="text4-4"
         style="font-style:normal;font-variant:normal;font-weight:bold;font-stretch:normal;font-size:96px;font-family:'Fira Sans';-inkscape-font-specification:'Fira Sans, Bold';font-variant-ligatures:normal;font-variant-caps:normal;font-variant-numeric:normal;font-variant-east-asian:normal;writing-mode:lr-tb;direction:ltr;white-space:pre;shape-inside:url(#rect4-7);display:inline;fill:#fdd13c;fill-opacity:1;stroke-width:0.264583"
         d="m 166.89638,115.08083 a 12.237535,10.740827 0 0 1 -10.05416,4.61781 12.237535,10.740827 0 0 1 -9.61647,-4.09846 v 74.76029 h 19.67063 z" />
      <path
         id="text4-6"
         style="font-style:normal;font-variant:normal;font-weight:bold;font-stretch:normal;font-size:96px;font-family:'Fira Sans';-inkscape-font-specification:'Fira Sans, Bold';font-variant-ligatures:normal;font-variant-caps:normal;font-variant-numeric:normal;font-variant-east-asian:normal;writing-mode:lr-tb;direction:ltr;white-space:pre;shape-inside:url(#rect4-8);display:inline;fill:#fdd13c;fill-opacity:1;stroke-width:0.293201"
         d="m 187.04056,98.248336 a 12.289203,12.289203 0 0 1 1.48606,5.857724 12.289203,12.289203 0 0 1 -6.59418,10.89024 h 16.63632 v 75.36417 H 220.367 V 114.9963 h 22.72883 l 2.12685,-16.747964 z" />
      <text
         xml:space="preserve"
         transform="matrix(0.26458334,0,0,0.26458334,205.47523,33.499855)"
         id="text4-2"
         style="font-style:normal;font-variant:normal;font-weight:bold;font-stretch:normal;font-size:96px;font-family:'Fira Sans';-inkscape-font-specification:'Fira Sans, Bold';font-variant-ligatures:normal;font-variant-caps:normal;font-variant-numeric:normal;font-variant-east-asian:normal;writing-mode:lr-tb;direction:ltr;white-space:pre;shape-inside:url(#rect4-4);display:inline;fill:#ffffff;fill-opacity:1"><tspan
           x="150.22656"
           y="585.15227"
           id="tspan8"><tspan
             style="font-size:453.333px"
             id="tspan7">t</tspan></tspan></text>
    </g>
  </g>
  <g
     inkscape:groupmode="layer"
     id="layer2"
     inkscape:label="Neurons"
     transform="matrix(1.2327387,0,0,1.2327387,-54.608455,-40.305579)">
    <g
       id="g11"
       transform="matrix(0.77370548,0,0,0.77370548,35.530223,19.513992)"
       style="fill:#000000;fill-opacity:1">
      <ellipse
         style="fill:#ffffff;fill-opacity:1;stroke-width:0.0310544;stroke-miterlimit:100;paint-order:stroke fill markers;opacity:1;stroke:none;stroke-opacity:1"
         id="path1"
         cx="155.83958"
         cy="84.937981"
         rx="7.1262383"
         ry="6.6934195" />
      <path
         style="fill:#bebebe;fill-opacity:1;stroke:#ffffff;stroke-width:2.91042;stroke-miterlimit:100;stroke-dasharray:none;stroke-opacity:1;marker-end:url(#Dot);paint-order:stroke fill markers"
         d="m 155.83958,85.063539 24.87084,-24.87084"
         id="path3" />
      <path
         style="fill:#bebebe;fill-opacity:1;stroke:#ffffff;stroke-width:2.91042;stroke-linejoin:round;stroke-miterlimit:100;stroke-dasharray:none;stroke-opacity:1;marker-end:url(#marker5);paint-order:stroke fill markers"
         d="m 155.83958,85.063539 h 32.67605"
         id="path4" />
      <path
         style="fill:#bebebe;fill-opacity:1;stroke:#ffffff;stroke-width:2.91042;stroke-linejoin:round;stroke-miterlimit:100;stroke-dasharray:none;stroke-opacity:1;marker-end:url(#marker7);paint-order:stroke fill markers"
         d="m 155.83958,85.063539 24.87084,24.870841"
         id="path6" />
    </g>
    <g
       id="g10"
       transform="translate(126.72828,22.669983)">
      <path
         id="path54-1"
         style="fill:#fdd13c;fill-opacity:1;stroke-width:0.0984434"
         d="m 27.339546,37.000285 c -1.12027,-0.02404 -2.12015,0.699005 -2.44836,1.770513 l -1.43289,4.67845 c -0.22877,0.746921 -0.79719,1.333078 -1.52565,1.615159 l -0.023,0.0091 c -0.72662,0.282566 -1.54001,0.234762 -2.21226,-0.160224 l -4.21887,-2.478199 c -0.9662,-0.567537 -2.19185,-0.424214 -3.00103,0.350923 l -3.18296,3.049019 c -0.80916,0.775137 -1.00482,1.993536 -0.47935,2.983182 l 2.29495,4.321361 c 0.36566,0.688522 0.37863,1.503336 0.0652,2.217117 l -0.01,0.02238 c -0.31309,0.715657 -0.92304,1.258418 -1.67906,1.454941 l -4.73586,1.231155 c -1.08452,0.281909 -1.84961,1.249936 -1.87365,2.370196 l -0.0947,4.40634 c -0.024,1.12027 0.69919,2.12055 1.77052,2.44869 l 4.67845,1.43321 c 0.74702,0.2288 1.33299,0.79715 1.61515,1.52564 0.003,0.008 0.007,0.0153 0.008,0.023 0.28244,0.72667 0.23467,1.53996 -0.16018,2.21224 l -2.4782,4.21856 c -0.56752,0.966193 -0.42396,2.19212 0.35126,3.00133 l 3.04902,3.18296 c 0.77513,0.80916 1.99353,1.00482 2.98318,0.47936 l 4.32103,-2.29463 c 0.68853,-0.36566 1.50306,-0.37883 2.2168,-0.0655 l 0.0227,0.01 c 0.71575,0.31313 1.25875,0.92305 1.45527,1.67905 l 1.23083,4.73586 c 0.28191,1.08452 1.24989,1.84969 2.37019,1.87365 l 4.40666,0.0947 c 1.12029,0.024 2.12023,-0.69919 2.44837,-1.77052 l 1.43321,-4.67845 c 0.22877,-0.74692 0.79719,-1.33308 1.52565,-1.61515 l 0.0234,-0.008 c 0.3669,-0.1426 0.75569,-0.20118 1.13742,-0.17319 a 25.094331,23.570204 0 0 1 -5.20548,-5.87554 c -1.10527,0.33986 -2.23002,0.51164 -3.32567,0.48812 -5.82177,-0.12503 -12.23131,-5.79452 -12.08483,-12.61509 0.14641,-6.820632 5.79443,-12.231108 12.61511,-12.084837 0.95521,0.02051 1.88291,0.148882 2.77139,0.373303 a 25.094331,23.570204 0 0 1 5.23079,-5.915442 c -0.12469,-0.03414 -0.2477,-0.07765 -0.36779,-0.130377 l -0.0227,-0.01011 c -0.71563,-0.313123 -1.25839,-0.923079 -1.45491,-1.679086 l -1.23084,-4.735857 c -0.1938,-0.745616 -0.71204,-1.339926 -1.38099,-1.646619 -0.30407,-0.139414 -0.63909,-0.219508 -0.9892,-0.227031 z" />
    </g>
  </g>
</svg>
